<svg id="Layer_1" data-name="Layer 1" xmlns="http://www.w3.org/2000/svg" viewBox="0 0 32 32"><title>Partogram</title><path d="M26.6,5.4C21.265.073,14.133.316,8.427,6.022c-6.12,6.12-9.4,17.067-4.458,22.009s15.889,1.662,22.008-4.458C31.684,17.867,31.927,10.735,26.6,5.4ZM25.265,6.735a9.873,9.873,0,0,1,3.263,7.648l-8-2.9L17.712,3.465A9.9,9.9,0,0,1,25.265,6.735ZM9.758,7.354a13.387,13.387,0,0,1,6.055-3.615L18.7,11.968l-3.989,3.989A2.654,2.654,0,0,0,13.5,15.8l-3.009.283a3.561,3.561,0,0,0-1.946.866,12.851,12.851,0,0,0-3.692-2.087A23.272,23.272,0,0,1,9.758,7.354ZM4.521,15.738a11.837,11.837,0,0,1,3.37,1.894,3.505,3.505,0,0,0-.669,1.714l-.283,3.01A2.654,2.654,0,0,0,7.1,23.568l-2.4,2.4C2.942,23.49,3.131,19.593,4.521,15.738ZM6.03,27.3l2.4-2.4a2.654,2.654,0,0,0,1.212.162l3.01-.283a3.5,3.5,0,0,0,1.68-.648,10.152,10.152,0,0,1,1.785,3.4C12.311,28.876,8.479,29.036,6.03,27.3Zm18.616-5.059A23.281,23.281,0,0,1,17.014,27.2a11.558,11.558,0,0,0-1.984-3.709,3.575,3.575,0,0,0,.892-1.977L16.2,18.5a2.654,2.654,0,0,0-.162-1.212L20.027,13.3l8.207,2.975A13.432,13.432,0,0,1,24.646,22.242Z"/></svg>